<?xml version="1.0" standalone="no"?>
<!DOCTYPE svg PUBLIC "-//W3C//DTD SVG 20010904//EN"
 "http://www.w3.org/TR/2001/REC-SVG-20010904/DTD/svg10.dtd">
<svg version="1.0" xmlns="http://www.w3.org/2000/svg"
 width="260.000000pt" height="260.000000pt" viewBox="0 0 260.000000 260.000000"
 preserveAspectRatio="xMidYMid meet">
<metadata>
Created by potrace 1.11, written by Peter Selinger 2001-2013
</metadata>
<g transform="translate(0.000000,260.000000) scale(0.100000,-0.100000)"
fill="#000000" stroke="none">
<path d="M980 2523 c0 -7 -9 -13 -21 -13 -11 0 -17 -4 -14 -10 3 -5 -1 -10
-11 -10 -9 0 -27 -11 -39 -24 -13 -14 -26 -22 -29 -19 -3 4 -6 -2 -6 -13 0
-16 -2 -17 -10 -4 -8 12 -10 12 -10 1 0 -8 -3 -12 -6 -9 -3 4 -20 0 -39 -7
-18 -8 -35 -11 -39 -8 -3 4 -6 1 -6 -6 0 -7 -4 -9 -10 -6 -5 3 -10 1 -10 -4 0
-6 -12 -11 -26 -11 -16 0 -23 -4 -18 -11 4 -7 1 -10 -7 -7 -8 3 -20 -2 -27
-11 -10 -12 -12 -13 -6 -1 7 12 5 13 -8 3 -8 -7 -18 -10 -22 -6 -4 4 -4 -1 0
-10 3 -10 3 -17 -2 -15 -12 4 -84 -41 -84 -53 0 -5 -7 -9 -16 -9 -8 0 -13 -4
-10 -8 3 -5 -4 -14 -14 -22 -10 -8 -16 -18 -13 -24 4 -5 -1 -7 -11 -3 -12 5
-16 3 -13 -5 2 -7 -2 -20 -10 -30 -8 -9 -16 -23 -17 -32 -1 -9 -11 -23 -22
-32 -10 -8 -13 -13 -7 -9 9 4 11 1 7 -9 -3 -9 -11 -13 -16 -10 -6 4 -5 -3 1
-15 8 -15 9 -21 1 -21 -6 0 -9 -4 -6 -9 4 -5 0 -12 -6 -14 -10 -4 -10 -6 0 -6
8 -1 10 -6 6 -13 -10 -16 -12 -78 -2 -72 5 3 8 -6 8 -20 0 -14 5 -26 11 -26 6
0 9 -7 5 -15 -3 -8 -1 -15 5 -15 6 0 8 -7 5 -16 -3 -8 -2 -13 3 -9 5 3 15 -8
23 -25 7 -16 17 -30 21 -30 5 0 5 -5 1 -12 -4 -7 -3 -8 5 -4 6 4 14 0 17 -8 3
-9 10 -16 16 -16 5 0 6 4 3 10 -3 6 1 7 9 4 9 -3 13 -11 9 -17 -3 -6 -1 -7 6
-3 6 4 9 11 6 16 -3 5 -1 11 4 15 6 3 7 13 4 22 -4 11 -3 14 5 9 8 -4 10 -2 6
7 -3 8 -1 18 5 21 6 4 7 14 4 23 -5 12 -3 14 7 8 10 -6 12 -4 7 8 -3 9 0 23 8
31 8 7 11 16 8 20 -4 3 -1 6 6 6 8 0 11 7 7 15 -5 13 5 19 26 16 4 0 5 6 2 14
-4 8 -1 15 5 15 6 0 11 7 11 15 0 9 7 18 15 21 8 4 15 12 15 19 0 8 5 17 12
21 7 4 8 3 4 -4 -4 -7 -2 -12 3 -12 6 0 11 4 11 10 0 17 44 61 56 56 7 -3 15
0 17 7 2 7 3 -9 2 -35 -2 -25 -6 -52 -10 -59 -6 -8 -4 -10 5 -4 9 6 11 4 5 -5
-12 -19 -14 -70 -3 -70 5 0 6 -5 2 -11 -3 -6 -7 -46 -9 -89 -1 -42 -6 -83 -10
-90 -5 -9 -4 -11 3 -6 7 4 12 3 12 -3 0 -5 -6 -12 -12 -14 -10 -4 -10 -6 0 -6
6 -1 12 -6 12 -12 0 -5 -6 -7 -12 -3 -9 5 -9 2 1 -9 7 -9 9 -17 4 -17 -11 0
-11 -29 0 -47 4 -6 1 -14 -5 -16 -9 -4 -9 -6 1 -6 11 -1 10 -5 -5 -17 -10 -8
-13 -12 -5 -8 11 5 13 3 8 -9 -3 -9 -2 -19 4 -23 6 -4 3 -14 -8 -27 -10 -11
-12 -17 -5 -13 15 9 15 1 2 -24 -7 -13 -7 -21 0 -25 5 -3 10 -11 10 -16 0 -6
-4 -8 -8 -5 -5 3 -9 -1 -9 -9 0 -8 5 -15 10 -15 5 0 3 -8 -4 -17 -12 -15 -12
-16 1 -8 12 7 13 6 5 -6 -6 -8 -11 -52 -10 -99 0 -47 -4 -88 -10 -92 -6 -5 -5
-8 3 -8 7 0 3 -9 -9 -21 -11 -11 -23 -18 -26 -15 -4 3 -13 0 -21 -7 -13 -9
-14 -9 -8 1 4 7 1 12 -8 12 -9 0 -16 -6 -16 -12 0 -10 -3 -10 -9 0 -10 17 -47
11 -44 -6 2 -7 -3 -12 -10 -12 -8 0 -7 -4 3 -10 13 -8 12 -10 -3 -10 -17 0
-17 -1 -3 -16 19 -18 21 -28 4 -18 -7 5 -8 3 -2 -7 9 -14 12 -28 16 -65 3 -34
21 -44 84 -46 19 -1 35 -5 35 -10 3 -19 5 -24 12 -35 4 -6 3 -14 -1 -17 -5 -3
-8 -29 -8 -58 1 -29 -2 -59 -7 -66 -5 -6 -6 -12 -1 -12 5 0 9 -18 9 -40 0 -30
-3 -39 -14 -35 -10 4 -11 2 -4 -7 14 -18 23 -58 12 -58 -4 0 -5 -7 -2 -17 4
-11 3 -14 -5 -9 -8 5 -10 2 -6 -8 3 -9 10 -14 14 -11 10 6 0 -36 -12 -52 -6
-7 -4 -14 3 -19 8 -5 9 -3 4 6 -6 9 -4 11 5 5 10 -6 9 -11 -5 -22 -18 -13 -18
-13 1 -14 10 0 14 -3 8 -5 -8 -3 -9 -16 -4 -39 4 -19 4 -35 0 -35 -4 0 -5 -12
-3 -27 2 -16 4 -39 4 -52 -1 -13 5 -31 11 -39 10 -13 10 -14 1 -8 -16 9 -16 1
-2 -26 8 -15 8 -19 0 -14 -6 4 -11 2 -11 -3 0 -6 6 -11 14 -11 9 0 12 -10 10
-30 -2 -16 1 -30 6 -30 6 0 10 -7 10 -15 0 -8 9 -19 20 -25 13 -7 20 -7 20 -1
0 6 7 8 15 5 8 -4 15 -1 15 6 0 6 5 8 10 5 6 -4 8 -12 4 -18 -3 -7 0 -5 8 3 7
8 24 17 38 18 14 2 31 9 38 14 8 7 12 6 12 -3 1 -10 4 -9 14 3 7 10 16 15 19
11 4 -3 7 -1 7 6 0 7 5 9 10 6 6 -3 10 -1 10 5 0 6 5 8 10 5 6 -3 10 -2 10 2
0 5 9 14 21 21 15 10 19 10 14 1 -5 -8 -4 -10 4 -5 13 9 11 37 -4 48 -5 4 -1
8 10 8 18 1 18 2 3 10 -10 6 -15 19 -13 30 2 11 0 20 -5 20 -5 0 -7 12 -4 27
3 15 0 30 -8 34 -10 7 -10 9 1 9 11 0 11 3 0 17 -8 9 -9 14 -3 10 6 -3 11 0
11 8 0 8 -4 12 -8 10 -4 -3 -9 2 -13 10 -3 8 -1 17 4 20 7 4 6 13 0 25 -6 10
-6 21 -2 24 10 6 9 36 -1 53 -4 6 -3 14 3 18 6 4 7 13 2 23 -5 9 -8 49 -7 89
0 39 -2 70 -5 68 -3 -2 -5 12 -5 31 0 19 4 34 9 34 6 0 2 6 -9 13 -14 11 -15
16 -5 22 9 5 11 4 6 -3 -4 -7 -2 -12 3 -12 13 0 13 2 1 34 -7 19 -6 26 3 26 8
0 7 4 -3 10 -11 7 -11 10 -2 10 7 0 11 4 8 9 -9 14 20 21 33 8 9 -9 11 -8 6 4
-5 13 0 15 25 11 21 -3 38 2 53 14 16 14 18 15 9 2 -11 -14 -11 -16 7 -11 12
3 21 9 21 14 0 4 9 6 20 4 11 -2 26 3 34 11 13 12 15 12 19 -4 4 -16 5 -16 6
1 1 14 4 15 20 5 15 -9 17 -15 9 -25 -7 -9 -7 -13 1 -13 6 0 11 -7 11 -15 0
-8 9 -30 20 -50 11 -19 17 -35 14 -35 -4 0 -1 -6 5 -13 6 -8 8 -17 4 -20 -3
-4 0 -7 7 -7 7 0 11 -3 8 -6 -4 -3 0 -21 8 -40 8 -19 12 -39 9 -44 -4 -6 2
-10 12 -10 15 0 16 -2 3 -10 -8 -5 -10 -10 -4 -10 7 0 15 -7 18 -16 4 -10 2
-13 -7 -8 -9 6 -9 5 0 -8 7 -8 10 -18 6 -21 -3 -4 -1 -7 5 -7 7 0 12 -14 12
-31 0 -21 4 -28 13 -23 7 5 6 0 -3 -11 -14 -17 -13 -18 3 -12 11 4 16 3 12 -4
-4 -5 -1 -17 7 -26 9 -12 9 -15 1 -9 -7 4 -13 2 -13 -3 0 -6 5 -11 10 -11 6 0
10 -9 10 -20 0 -11 4 -20 10 -20 5 0 7 -7 4 -15 -4 -8 -1 -15 5 -15 6 0 8 -7
4 -17 -4 -11 -3 -14 5 -9 11 6 18 -19 13 -47 0 -4 7 -7 16 -7 15 0 16 -2 3
-10 -9 -6 -10 -10 -3 -10 10 0 30 -39 24 -48 -1 -2 7 -12 19 -22 15 -13 17
-19 8 -23 -9 -4 -7 -6 4 -6 9 -1 20 -6 24 -13 5 -7 3 -8 -7 -3 -11 7 -11 5 1
-11 8 -10 23 -26 32 -35 10 -9 18 -22 18 -28 0 -7 4 -9 10 -6 5 3 10 -1 10 -9
0 -10 9 -16 22 -16 12 0 19 -3 15 -6 -3 -4 0 -13 8 -20 17 -17 28 -18 20 -1
-4 6 0 4 9 -7 8 -10 20 -15 25 -11 6 3 14 -1 17 -10 6 -13 8 -14 15 -3 5 7 9
8 9 2 0 -5 14 -9 30 -8 17 1 30 -3 30 -9 0 -8 3 -9 8 -1 4 6 21 10 37 10 17
-1 36 5 43 14 8 8 11 9 7 2 -4 -7 0 -12 9 -12 9 0 16 5 16 10 0 6 11 8 25 6
13 -3 24 -2 22 2 -1 4 2 8 6 9 5 1 15 10 24 20 8 10 11 11 7 3 -4 -8 7 0 25
19 17 19 31 38 31 43 0 7 -24 12 -44 9 -4 -1 -15 6 -23 16 -8 10 -11 12 -7 3
4 -8 -3 -5 -15 7 -12 13 -28 20 -36 16 -10 -3 -15 0 -13 8 2 8 -3 13 -10 11
-8 -1 -11 1 -8 6 6 10 -47 62 -64 62 -6 0 -8 5 -5 10 3 6 1 10 -4 10 -6 0 -11
7 -11 16 0 9 -5 12 -12 8 -8 -5 -9 -2 -5 10 4 10 3 15 -3 11 -6 -3 -10 -1 -10
5 0 6 -12 23 -27 37 -16 15 -22 23 -15 18 11 -6 12 -3 2 14 -6 12 -16 18 -22
15 -7 -5 -9 -2 -5 9 3 8 -1 21 -9 28 -8 7 -13 18 -10 26 3 8 1 11 -4 8 -5 -3
-12 6 -16 20 -3 14 -11 25 -16 25 -6 0 -8 9 -5 20 3 13 0 20 -10 20 -8 0 -11
4 -8 10 3 5 1 10 -5 10 -6 0 -8 4 -5 10 3 5 -2 21 -11 35 -9 14 -12 25 -8 25
5 0 3 4 -3 8 -7 4 -14 19 -15 32 -2 14 -9 31 -16 38 -7 8 -10 18 -7 23 4 5 0
9 -7 9 -9 0 -9 3 2 10 13 8 13 10 -2 10 -11 0 -15 5 -12 15 4 8 2 15 -4 15 -5
0 -8 11 -7 25 2 14 -1 25 -7 25 -6 0 -7 7 -4 16 3 8 2 12 -4 9 -6 -3 -10 3
-10 14 0 11 -5 23 -11 27 -6 3 -9 15 -6 25 3 10 -1 23 -9 30 -8 6 -14 16 -14
22 0 6 -8 19 -17 30 -10 11 -12 17 -5 13 8 -5 12 -1 12 12 0 13 9 22 25 26 16
4 22 11 19 21 -4 11 -2 13 9 10 8 -4 17 1 20 9 4 9 14 16 22 16 9 0 14 3 12 8
-6 9 19 33 27 25 3 -4 6 -1 6 5 0 6 15 26 34 44 18 18 31 39 29 46 -3 7 1 11
9 10 7 -2 12 3 11 10 -2 6 4 12 13 12 8 0 12 4 9 10 -6 10 27 64 55 88 13 12
13 13 -1 9 -14 -5 -15 -2 -5 18 6 13 15 21 20 18 5 -4 7 1 3 10 -3 10 -2 17 2
17 5 0 8 11 6 25 -2 18 1 23 9 16 9 -8 12 2 11 34 -1 24 2 42 6 40 4 -3 10 2
13 11 5 12 2 15 -10 10 -15 -6 -15 -4 -3 10 9 11 14 42 14 83 1 36 4 71 8 78
4 6 3 14 -3 18 -6 3 -8 17 -6 30 3 14 0 27 -5 30 -5 4 -9 11 -9 16 0 6 4 8 9
5 13 -9 7 19 -8 38 -7 9 -10 16 -6 16 4 0 1 8 -6 17 -12 15 -12 16 1 8 13 -8
13 -7 1 8 -8 10 -11 20 -8 24 4 3 0 11 -7 17 -8 6 -16 20 -18 31 -2 11 -9 26
-16 33 -7 8 -10 18 -7 23 4 5 1 9 -4 9 -6 0 -11 7 -11 17 0 9 -3 14 -6 10 -7
-7 -54 58 -54 73 0 6 -6 10 -13 10 -7 0 -22 7 -33 16 -10 8 -13 13 -6 9 6 -3
12 -1 12 6 0 6 -8 9 -20 6 -11 -3 -18 0 -17 7 1 6 -4 10 -10 8 -7 -1 -13 4
-13 10 0 7 -13 22 -28 33 -18 12 -24 14 -17 4 6 -8 2 -6 -9 6 -10 11 -25 19
-32 17 -8 -2 -17 4 -20 12 -3 8 -12 12 -19 10 -7 -3 -15 3 -18 13 -4 16 -5 16
-6 -2 -1 -16 -3 -17 -10 -6 -5 8 -20 16 -32 18 -13 2 -27 9 -31 16 -6 9 -8 8
-8 -3 0 -9 -3 -11 -8 -5 -7 11 -24 16 -57 19 -11 1 -19 8 -17 15 1 7 -2 10 -8
6 -6 -3 -8 -10 -6 -14 3 -3 -4 -7 -14 -7 -10 0 -16 5 -13 10 4 5 -1 7 -10 3
-9 -3 -19 -1 -23 5 -4 7 -9 6 -15 -3 -5 -8 -9 -9 -9 -3 0 7 -15 9 -45 4 -27
-4 -45 -3 -45 3 0 6 -5 5 -12 -1 -16 -13 -83 13 -73 28 3 5 1 10 -5 10 -6 0
-8 5 -5 10 4 6 -7 10 -24 10 -18 0 -31 -5 -31 -12 0 -9 -4 -8 -10 2 -6 10 -10
11 -10 3z m248 -326 c13 -10 14 -9 8 2 -6 8 0 7 18 -4 14 -10 26 -14 26 -10 0
4 8 1 17 -6 9 -8 14 -9 10 -2 -5 8 -1 8 18 0 14 -7 25 -15 25 -19 0 -5 7 -8
15 -8 8 0 15 -5 15 -11 0 -5 4 -8 9 -5 12 8 52 -29 43 -39 -4 -5 -2 -5 5 -2
14 9 46 -21 37 -34 -3 -5 -2 -9 3 -8 17 3 33 -1 32 -8 -4 -22 2 -33 14 -27 6
4 9 4 5 -1 -4 -4 -3 -14 3 -22 6 -7 8 -13 5 -13 -4 0 3 -10 14 -22 11 -12 18
-28 16 -35 -3 -7 0 -13 6 -13 6 0 8 -3 5 -6 -3 -4 -2 -15 4 -25 7 -13 6 -19
-1 -19 -6 0 -4 -7 4 -16 9 -8 13 -21 9 -27 -11 -18 -12 -36 -3 -42 5 -3 6 -13
3 -22 -5 -12 -3 -14 7 -8 10 6 11 4 4 -6 -12 -19 -12 -30 -2 -51 7 -14 4 -18
-9 -18 -15 0 -16 -2 -3 -10 10 -6 11 -10 3 -10 -7 0 -13 -7 -13 -16 0 -9 5
-12 13 -8 10 6 10 4 0 -7 -7 -7 -13 -26 -13 -41 0 -15 -5 -28 -11 -28 -5 0 -7
-4 -4 -10 3 -5 1 -10 -5 -10 -6 0 -8 -11 -6 -24 3 -16 -3 -31 -20 -47 -14 -13
-22 -29 -19 -37 2 -7 1 -11 -4 -8 -5 3 -15 -2 -22 -11 -12 -14 -12 -16 1 -8 8
4 6 -1 -5 -12 -11 -11 -23 -19 -27 -16 -4 2 -10 -7 -13 -20 -4 -15 -13 -24
-23 -23 -9 0 -16 -5 -15 -11 2 -7 -2 -13 -8 -13 -5 0 -7 -6 -3 -12 5 -8 0 -7
-11 2 -11 9 -16 10 -11 3 6 -12 -5 -18 -26 -14 -5 0 -8 -6 -8 -15 0 -10 -6
-14 -15 -10 -9 3 -15 0 -15 -8 0 -10 -7 -12 -22 -8 -17 4 -20 2 -14 -13 5 -15
4 -16 -8 -6 -10 8 -16 9 -21 1 -3 -5 -17 -10 -31 -10 -13 0 -24 -3 -24 -7 0
-5 -14 -9 -31 -10 -17 -1 -37 -7 -44 -13 -9 -8 -15 -8 -20 0 -3 5 -12 10 -18
10 -7 0 -6 -4 3 -10 12 -8 9 -10 -12 -10 -16 0 -28 5 -28 11 0 5 -5 7 -10 4
-7 -4 -8 3 -4 22 4 15 8 29 9 31 2 2 -1 19 -5 38 -5 20 -4 34 2 34 5 0 6 6 2
12 -10 17 -13 48 -4 48 8 0 4 55 -5 78 -3 7 0 10 5 7 14 -9 12 8 -2 24 -11 11
-10 12 0 7 9 -6 11 -1 8 18 -3 16 0 26 7 26 8 0 8 3 2 8 -12 8 -14 47 -3 58 4
4 3 13 -2 20 -12 14 -10 36 5 46 6 5 6 8 -1 8 -11 0 -12 49 -1 67 3 5 2 15 -3
23 -4 7 -4 24 1 37 6 16 5 23 -4 24 -9 0 -9 2 0 6 9 3 10 10 3 23 -7 13 -6 20
3 23 9 4 8 8 -3 16 -8 6 -10 11 -5 11 6 0 11 9 11 20 0 11 -4 20 -8 20 -5 0
-4 8 1 18 14 26 14 34 -1 43 -10 7 -10 9 0 9 8 0 10 5 6 12 -4 7 -8 22 -9 34
0 19 2 21 14 11 12 -10 13 -9 2 11 -6 12 -9 22 -5 22 3 0 0 8 -7 17 -11 13
-11 15 -1 9 11 -6 13 0 11 27 -5 54 9 63 92 60 40 -2 79 -9 87 -16z"/>
</g>
</svg>
